PathFileType	4	(X/Y/Z)	Patient4_TMGait_0pt6_02_left_05.trc.trc
DataRate	CameraRate	NumFrames	NumMarkers	Units	OrigDataRate	OrigDataStartFrame	OrigNumFrames
85.365853658537	85.365853658537	4	33	mm	85.365853658537	18	       141
Frame#	Time	Sacral			L.Shoulder			Chest			R.Shoulder			Neck			R.ASIS			L.ASIS			R.Thigh.Superior			R.Thigh.Lateral			R.Thigh.Inferior			R.Patella			L.Thigh.Superior			L.Thigh.Lateral			L.Thigh.Inferior			L.Patella			L.Shank.Superior			L.Shank.Lateral			L.Shank.Inferior			R.Shank.Superior			R.Shank.Lateral			R.Shank.Inferior			R.Heel			R.Midfoot.Superior			R.Midfoot.Lateral			R.Toe			L.Heel			L.Midfoot.Lateral			L.Midfoot.Superior			L.Toe			L.Elbow			L.Wrist			R.Elbow			R.Wrist			
		X1	Y1	Z1	X2	Y2	Z2	X3	Y3	Z3	X4	Y4	Z4	X5	Y5	Z5	X6	Y6	Z6	X7	Y7	Z7	X8	Y8	Z8	X9	Y9	Z9	X10	Y10	Z10	X11	Y11	Z11	X12	Y12	Z12	X13	Y13	Z13	X14	Y14	Z14	X15	Y15	Z15	X16	Y16	Z16	X17	Y17	Z17	X18	Y18	Z18	X19	Y19	Z19	X20	Y20	Z20	X21	Y21	Z21	X22	Y22	Z22	X23	Y23	Z23	X24	Y24	Z24	X25	Y25	Z25	X26	Y26	Z26	X27	Y27	Z27	X28	Y28	Z28	X29	Y29	Z29	X30	Y30	Z30	X31	Y31	Z31	X32	Y32	Z32	X33	Y33	Z33	

18	6.269142857143	688.117166966052	1007.109272290222	537.466565056319	844.984580178201	1437.803195561900	355.421574698144	969.000285017161	1360.956764832433	497.192099152314	910.970102691231	1429.279390456730	683.243948944489	849.346084229388	1491.028732469134	512.272590083835	921.217982851771	937.390728914793	632.505281297484	884.478876910827	959.533888312172	360.649638415803	922.914955407564	725.646002762042	601.887333696745	824.281435738501	629.255970286673	665.587218784733	883.551451497834	567.302300324967	582.007297404386	867.116372759737	482.341436926330	586.475080143129	963.292334649070	779.263983020095	387.061010659631	918.596883271472	650.055677258083	308.966083496335	1025.384695564126	594.939984950336	368.489524963627	1055.920776114679	530.325540006911	362.130637906083	1040.001425690414	457.100604137043	354.283891676804	973.708095100037	324.898348683269	309.766368265556	1065.836084713276	228.723031063774	361.537352761855	831.016972997694	396.200374438724	592.732334238114	750.066363142008	298.467401585148	652.615030369830	781.581326695101	201.659164621914	586.542196263011	635.437362886926	42.688222056161	550.603789226731	805.710044346280	95.958774323784	591.454623717071	716.344548758978	36.289916557749	626.985718162204	924.825046942180	42.897761189775	622.674457322801	990.387684610089	45.327576232939	407.187963345873	1060.218677733999	52.039904051091	324.021285239361	1127.461981768410	133.972338722138	339.317740422054	1261.314076232378	110.820001217979	308.130154801264	710.428733447677	1107.948662074678	258.751310936687	666.606807943919	852.595955124739	252.272853409060	1003.850970813050	1100.341702691003	796.253017791424	1228.148863701817	1184.426625111870	730.895567291207	
19	6.280857142857	688.645157659894	1005.942483431943	536.403591874041	843.687000159004	1436.754574451572	353.943643361965	968.396311939909	1360.216032978684	495.238185303809	910.882118554044	1428.466957556042	681.444964021428	848.491774988205	1490.043413697332	510.594872881082	922.134066675296	936.352130813400	630.772198161103	884.565353978658	958.464673242980	358.883662154984	922.649792016269	724.263929282440	600.039350988393	823.596866306562	628.339884083310	664.301887706590	881.944559912415	565.919143114068	580.525507237961	864.704980360565	480.907606675440	584.933874549816	963.643419099357	778.113434224485	384.794650157613	916.705508655792	647.905596921886	309.161488969056	1024.463856182203	593.169889938608	366.616876668933	1054.077448045056	528.203854446540	361.200949711990	1037.994542385854	454.587190754210	354.114872524570	970.504275478506	322.452004749684	311.685911552937	1062.824399980308	226.304246816925	362.957917596166	827.719472852716	395.009409112107	591.597509665170	746.043835984143	298.184872080524	652.051497568741	775.945258456292	200.985712094428	585.925646965810	628.371159352642	42.697566752374	550.631979036857	798.662386482520	95.864207814879	591.310960019945	709.265726338485	36.233362871759	626.980267171719	917.769087830964	42.704367153442	622.638014402896	986.795728799894	44.525670795390	411.094406454681	1055.431136267651	49.852586165066	326.879695545338	1123.934323813540	130.735924244659	340.778358361184	1256.884544827043	105.559467591700	307.861604506768	710.580811154531	1106.321089711256	257.059752222921	668.664277292594	850.653433325116	250.199918168520	1004.970432809481	1099.654092263409	793.494127723749	1226.314697305011	1188.603182798848	725.806048236124	
20	6.292571428571	689.422088788993	1004.663782991251	535.152431765978	842.339543092814	1435.641571622952	352.307212450777	967.754081094616	1359.540117318289	493.183121816285	910.603771938259	1427.651590713516	679.525041490099	847.550707259186	1489.017039271072	508.789903974211	923.257884001523	935.273399409021	629.008428391574	885.024631476007	957.306917793677	357.078469530937	922.629327508110	722.808704175023	598.317731034975	823.009343401620	627.383891328620	663.008409340760	880.553004198796	564.439175076574	579.158398142114	862.445298554283	479.370949800206	583.441204456562	964.415968161147	776.728544334840	382.435200756225	914.957069015570	645.588911088135	309.507557801799	1023.633968703565	591.106802335177	364.922342292708	1052.071032696252	525.579485611024	360.569703151246	1035.610103717712	451.554360297629	354.167352827598	966.483017863957	319.776021683098	313.641703659668	1058.499331385490	223.275829351161	364.578591243389	824.544712856072	393.768881615792	590.482102310734	742.061772494866	297.911006699312	651.488715463718	770.346811970197	200.311146460461	585.351336363330	621.313242908029	42.719973484837	550.673881741503	791.629583211533	95.776142742707	591.184213857337	702.202394193238	36.165590616769	626.980960837671	910.720337531662	42.469844834435	622.616210695218	980.964425122850	43.572206581578	414.903697501641	1048.503341224529	47.387090136288	329.695490855952	1118.692143501591	126.714699974535	342.520760071301	1250.634630668887	98.827056866155	307.903261514894	710.979431648580	1104.508212648398	255.142222423602	671.822900726590	848.397013219979	247.858548764080	1005.712795373384	1098.891421159912	790.716163038216	1224.430937331935	1191.791578187154	720.850586671276	
21	6.304285714286	690.436905812083	1003.294015599779	533.724382175569	840.998212567613	1434.459439152075	350.495822756843	967.105953849223	1358.926853145747	491.033245144831	910.149344886813	1426.842923574593	677.483714527394	846.553475657657	1487.954256116367	506.845598567077	924.570997266114	934.140499324598	627.221823113309	885.844171907577	956.078823449383	355.255130117228	922.831406279746	721.277903528896	596.732780543355	822.494152347363	626.388041363017	661.690307592799	879.364199977181	562.869770831113	577.883578337077	860.340530494216	477.719194023204	581.979072706659	965.503519775435	775.050341550781	380.062174107001	913.345026713417	643.163727578500	309.909433804227	1022.809561931773	588.759256955050	363.479297631682	1049.851356350833	522.530880269022	360.281883306541	1032.891736370572	448.138900877507	354.419744686823	961.923143231730	316.921102093973	315.480071815524	1053.232734086519	219.807726581252	366.317273193479	821.481478289284	392.477940181835	589.364279206569	738.109912264731	297.651121309262	650.908862140896	764.780916088322	199.642398463241	584.807025289052	614.260125657610	42.771886733843	550.732264075365	784.611518817390	95.697915889236	591.069623550842	695.154269177181	36.097937561120	626.988422240505	903.680595028888	42.196606038564	622.613190797709	973.476755825936	42.490604640530	418.397018915299	1040.094155427723	44.802051584470	332.320362384256	1112.243929306754	122.179500947703	344.492075779864	1243.146693297713	91.119820578355	308.336960792337	711.639388080453	1102.512574176334	253.027214664511	676.010345717833	845.866727856309	245.275696212514	1006.057777817563	1098.049229352692	787.943582467438	1222.548042596754	1193.980984541901	716.042553845993	
